<?xml version="1.0" standalone="no"?><!DOCTYPE svg PUBLIC "-//W3C//DTD SVG 1.1//EN" "http://www.w3.org/Graphics/SVG/1.1/DTD/svg11.dtd"><svg t="1645959030549" class="icon" viewBox="0 0 1024 1024" version="1.1" xmlns="http://www.w3.org/2000/svg" p-id="20839" xmlns:xlink="http://www.w3.org/1999/xlink" width="200" height="200"><defs><style type="text/css"></style></defs><path d="M499.2512 127.5904c-209.9712 3.6864-380.2624 176.9984-380.5184 387.0208a385.26464 385.26464 0 0 0 68.4032 220.1088c1.792 2.6112 2.304 5.8368 1.3824 8.8576l-31.6416 101.3248c-2.4576 7.8336 4.864 15.2576 12.7488 12.9024l101.0688-30.0032c3.072-0.9216 6.3488-0.3072 8.9088 1.536 65.3824 47.2576 146.1248 74.5984 233.3184 73.1136 207.4112-3.5328 376.832-172.6464 380.7232-380.0576 4.0448-219.7504-174.7456-398.6944-394.3936-394.8032z" fill="#FF5F5F" p-id="20840"></path><path d="M506.112 917.8624c-84.3776 0-164.9152-25.7024-233.472-74.6496l-98.6624 29.2864c-9.1136 2.7136-18.8928 0.2048-25.5488-6.5536s-9.0624-16.5888-6.2464-25.6512l30.8736-98.9184c-45.7216-67.1232-69.7856-145.5104-69.7344-226.816 0.2048-218.0096 177.7152-398.5408 395.5712-402.3808 110.4384-1.8944 214.2208 39.9872 292.2496 118.0672s119.8592 181.9136 117.76 292.352c-1.9456 104.2944-44.032 202.7008-118.528 277.0944s-172.9536 116.2752-277.2992 118.0672c-2.2528 0.0512-4.608 0.1024-6.9632 0.1024z m-232.4992-105.8816c5.2736 0 10.496 1.6896 14.9504 4.864 65.4848 47.3088 143.0016 71.68 224.0512 70.1952 197.9392-3.328 361.9328-167.0656 365.6192-365.0048 1.8944-102.0416-36.7616-197.9904-108.8-270.08s-167.8848-110.7968-269.9776-109.056c-201.2672 3.5328-365.2096 170.2912-365.4144 371.6608-0.1024 75.8784 22.6304 148.992 65.6896 211.4048 4.5056 6.5536 5.7344 14.592 3.3792 22.1696l-28.7744 92.2112 91.9552-27.2896c2.4576-0.7168 4.9152-1.0752 7.3216-1.0752z" fill="#424242" p-id="20841"></path><path d="M667.5456 553.9328h-92.16l12.7488-92.16h79.4112c8.4992 0 15.36-6.8608 15.36-15.36s-6.8608-15.36-15.36-15.36h-75.2128l10.496-76.032c1.1776-8.3968-4.7104-16.1792-13.1072-17.3056-8.3968-1.1776-16.1792 4.7104-17.3056 13.1072l-11.0592 80.2304H468.736l10.496-76.032c1.1776-8.3968-4.7104-16.1792-13.1072-17.3056-8.3968-1.1776-16.1792 4.7104-17.3056 13.1072L437.76 431.0528H344.8832c-8.4992 0-15.36 6.8608-15.36 15.36s6.8608 15.36 15.36 15.36h88.576l-12.7488 92.16H344.8832c-8.4992 0-15.36 6.8608-15.36 15.36s6.8608 15.36 15.36 15.36h71.6288l-11.4176 82.7904c-1.1776 8.3968 4.7104 16.1792 13.1072 17.3056 0.7168 0.1024 1.4336 0.1536 2.0992 0.1536a15.4112 15.4112 0 0 0 15.2064-13.2608l12.032-86.9888h92.6208l-11.4176 82.7904c-1.1776 8.3968 4.7104 16.1792 13.1072 17.3056 0.7168 0.1024 1.4336 0.1536 2.0992 0.1536a15.4112 15.4112 0 0 0 15.2064-13.2608l12.032-86.9888h96.4096c8.4992 0 15.36-6.8608 15.36-15.36s-6.912-15.36-15.4112-15.36z m-215.808 0l12.7488-92.16h92.6208l-12.7488 92.16H451.7376z" fill="#FFFFFF" p-id="20842"></path></svg>